# xmcd CD database file
#
# Track frame offsets:
#	150
#	62156
#	81036
#	123515
#	177401
#	217809
#	247045
#
# Disc length: 4111 seconds
#
# Revision: 0
# Processed by: cddbd v1.5.2PL0 Copyright (c) Steve Scherf et al.
# Submitted via: CDex 1.51
#
DISCID=5e100d07
DTITLE=Masada - Live At Tonic - 9/30/99 Disc 2
DYEAR=1900
DGENRE=Jazz
TTITLE0=Bith Aneth
TTITLE1=Katzatz
TTITLE2=Shamor
TTITLE3=Nashon
TTITLE4=Tevel
TTITLE5=Karet
TTITLE6=Kedem
EXTD=
EXTT0=
EXTT1=
EXTT2=
EXTT3=
EXTT4=
EXTT5=
EXTT6=
PLAYORDER=
